One man is out for revenge after a life-altering event destroys his family. After years of preparation he seeks out his justice, while unaware of their relation, on his brother. As these two brothers seek to destroy each other certain memories are triggered and although many trusted allies will be dishonest and misleading neither one will stop until they know the truth.
 
http://leetleech.org/images/15663982191022844769.jpg

Video
ID : 0
Format : MPEG-4 Visual
Format profile : Advanced Simple@L5
Format settings, BVOP : Yes
Format settings, QPel : No
Format settings, GMC : No warppoints
Format settings, Matrix : Default (H.263)
Muxing mode : Packed bitstream
Codec ID : XVID
Codec ID/Hint : XviD
Duration : 1h 32mn
Bit rate : 945 Kbps
Width : 656 pixels
Height : 368 pixels
Display aspect ratio : 16:9
Frame rate : 23.976 fps
Color space : YUV
Chroma subsampling : 4:2:0
Bit depth : 8 bits
Scan type : Progressive
Bits/(Pixel*Frame) : 0.163
Stream size : 624 MiB (89%)
Writing library : XviD 57

Audio
ID : 1
Format : MPEG Audio
Format version : Version 1
Format profile : Layer 3
Mode : Joint stereo
Mode extension : MS Stereo
Codec ID : 55
Codec ID/Hint : MP3
Duration : 1h 32mn
Bit rate mode : Variable
Bit rate : 104 Kbps
Nominal bit rate : 112 Kbps
Channel(s) : 2 channels
Sampling rate : 48.0 KHz
Stream size : 68.5 MiB (10%)
Alignment : Aligned on interleaves
Interleave, duration : 24 ms (0.58 video frame)
Interleave, preload duration : 177 ms
Writing library : LAME3.97
Encoding settings : -m j -V 4 -q 2 -lowpass 16 --abr 112

IMDB 
http://www.imdb.com/title/tt1891794/